<svg width="21" height="21" viewBox="0 0 21 21" fill="none" xmlns="http://www.w3.org/2000/svg">
<path d="M5.923 0.5C6.10865 0.5 6.2867 0.57375 6.41797 0.705025C6.54925 0.836301 6.623 1.01435 6.623 1.2V2.509H14.14V1.209C14.14 1.02335 14.2137 0.845301 14.345 0.714025C14.4763 0.58275 14.6543 0.509 14.84 0.509C15.0257 0.509 15.2037 0.58275 15.335 0.714025C15.4662 0.845301 15.54 1.02335 15.54 1.209V2.509H18.25C18.7803 2.509 19.2888 2.71958 19.6639 3.09443C20.0389 3.46929 20.2497 3.97774 20.25 4.508V18.501C20.2497 19.0313 20.0389 19.5397 19.6639 19.9146C19.2888 20.2894 18.7803 20.5 18.25 20.5H2.25C1.71974 20.5 1.21118 20.2894 0.83614 19.9146C0.461096 19.5397 0.250265 19.0313 0.25 18.501L0.25 4.508C0.250265 3.97774 0.461096 3.46929 0.83614 3.09443C1.21118 2.71958 1.71974 2.509 2.25 2.509H5.223V1.199C5.22327 1.01352 5.29713 0.835731 5.42838 0.704672C5.55963 0.573612 5.73752 0.5 5.923 0.5ZM1.65 8.242V18.501C1.65 18.5798 1.66552 18.6578 1.69567 18.7306C1.72583 18.8034 1.77002 18.8695 1.82574 18.9253C1.88145 18.981 1.94759 19.0252 2.02039 19.0553C2.09319 19.0855 2.17121 19.101 2.25 19.101H18.25C18.3288 19.101 18.4068 19.0855 18.4796 19.0553C18.5524 19.0252 18.6185 18.981 18.6743 18.9253C18.73 18.8695 18.7742 18.8034 18.8043 18.7306C18.8345 18.6578 18.85 18.5798 18.85 18.501V8.256L1.65 8.242ZM6.917 15.119V16.785H5.25V15.119H6.917ZM11.083 15.119V16.785H9.417V15.119H11.083ZM15.25 15.119V16.785H13.583V15.119H15.25ZM6.917 11.142V12.808H5.25V11.142H6.917ZM11.083 11.142V12.808H9.417V11.142H11.083ZM15.25 11.142V12.808H13.583V11.142H15.25ZM5.223 3.908H2.25C2.17121 3.908 2.09319 3.92352 2.02039 3.95367C1.94759 3.98382 1.88145 4.02802 1.82574 4.08374C1.77002 4.13945 1.72583 4.20559 1.69567 4.27839C1.66552 4.35119 1.65 4.42921 1.65 4.508V6.843L18.85 6.857V4.508C18.85 4.42921 18.8345 4.35119 18.8043 4.27839C18.7742 4.20559 18.73 4.13945 18.6743 4.08374C18.6185 4.02802 18.5524 3.98382 18.4796 3.95367C18.4068 3.92352 18.3288 3.908 18.25 3.908H15.54V4.837C15.54 5.02265 15.4662 5.2007 15.335 5.33197C15.2037 5.46325 15.0257 5.537 14.84 5.537C14.6543 5.537 14.4763 5.46325 14.345 5.33197C14.2137 5.2007 14.14 5.02265 14.14 4.837V3.908H6.623V4.828C6.623 5.01365 6.54925 5.1917 6.41797 5.32297C6.2867 5.45425 6.10865 5.528 5.923 5.528C5.73735 5.528 5.5593 5.45425 5.42803 5.32297C5.29675 5.1917 5.223 5.01365 5.223 4.828V3.908Z" fill="#1E0A3C"/>
</svg>
