<svg width="24" height="24" viewBox="0 0 24 24" fill="none" xmlns="http://www.w3.org/2000/svg">
<path fill-rule="evenodd" clip-rule="evenodd" d="M15.0659 16.1509C14.9315 15.2599 14.9923 14.3242 15.2384 13.4934C15.2805 13.3524 15.3567 13.2433 15.4503 13.19C15.5439 13.1368 15.6472 13.1438 15.7375 13.2095C15.8278 13.2752 15.8977 13.3941 15.9318 13.5402C15.966 13.6864 15.9615 13.8477 15.9194 13.9886C15.7429 14.5812 15.6988 15.2491 15.7942 15.8854C15.8897 16.5218 16.1192 17.0897 16.4459 17.4984C16.7718 17.9084 17.1764 18.1359 17.595 18.1444C18.0135 18.1529 18.4218 17.9418 18.7544 17.5452C19.088 17.1504 19.3272 16.5924 19.4337 15.9603C19.5401 15.3283 19.5077 14.6588 19.3416 14.0589C19.1763 13.4583 18.8867 12.9616 18.5192 12.6484C18.1517 12.3351 17.7274 12.2233 17.3144 12.3309C17.2162 12.356 17.1157 12.3193 17.0349 12.2287C16.9541 12.1381 16.8996 12.0012 16.8835 11.8479C16.8674 11.6947 16.891 11.5378 16.949 11.4116C17.007 11.2855 17.0947 11.2005 17.1929 11.1754C17.771 11.0271 18.3642 11.1847 18.8783 11.6231C19.3924 12.0616 19.7978 12.7558 20.0301 13.5953C20.2615 14.4359 20.3062 15.3731 20.1573 16.258C20.0084 17.1429 19.6743 17.9248 19.2081 18.4794C18.7416 19.0322 18.17 19.3257 17.5843 19.3132C16.9986 19.3006 16.4324 18.9829 15.9757 18.4103C15.519 17.8372 15.1987 17.0417 15.0659 16.1509Z" fill="#ABABAB"/>
<path fill-rule="evenodd" clip-rule="evenodd" d="M3.08355 0.00072986C3.00374 0.00562661 2.92702 0.0502159 2.86456 0.127918C2.8021 0.20562 2.75717 0.312398 2.7363 0.432741L1.73131 6.28626C1.71656 6.36137 1.71165 6.44035 1.71686 6.51849C1.72208 6.59662 1.73731 6.67232 1.76167 6.74107C1.78602 6.80982 1.81899 6.87019 1.85861 6.91863C1.89823 6.96707 1.94369 7.00259 1.99228 7.02302C2.04088 7.04346 2.09161 7.04841 2.14146 7.0376C2.19131 7.02679 2.23925 7.00042 2.28243 6.96007C2.32562 6.91973 2.36316 6.8662 2.39281 6.80273C2.42247 6.73926 2.44364 6.66716 2.45506 6.59065L3.3633 1.30141L11.6912 4.78544L17.2457 7.10691L17.9867 15.1602C17.9937 15.2363 18.0103 15.3095 18.0355 15.3756C18.0606 15.4417 18.0939 15.4994 18.1333 15.5454C18.1728 15.5915 18.2177 15.6249 18.2654 15.6439C18.3131 15.6629 18.3628 15.667 18.4116 15.656C18.4603 15.645 18.5072 15.6191 18.5495 15.5799C18.5919 15.5406 18.6289 15.4887 18.6584 15.4271C18.6879 15.3655 18.7093 15.2954 18.7214 15.2209C18.7336 15.1464 18.7362 15.0689 18.7292 14.9928L17.9514 6.55786C17.941 6.44447 17.9096 6.33834 17.8609 6.25261C17.8123 6.16687 17.7485 6.10531 17.6777 6.07554L11.8847 3.65454L3.1953 0.0183076C3.15883 0.00373048 3.12116 -0.00220657 3.08355 0.00072986Z" fill="#ABABAB"/>
<path fill-rule="evenodd" clip-rule="evenodd" d="M0.374997 6.43945C0.275541 6.43945 0.18016 6.50117 0.109834 6.61094C0.0395084 6.72072 0 6.86956 0 7.02481V23.4147C0 23.5699 0.0395084 23.7188 0.109834 23.8286C0.18016 23.9384 0.275541 24 0.374997 24H15.3681C15.4342 24 15.4991 23.9727 15.5563 23.9209C15.6135 23.8691 15.6608 23.7946 15.6936 23.705L18.6936 15.51C18.7261 15.4215 18.7432 15.3212 18.7432 15.2192C18.7432 15.1171 18.7261 15.0168 18.6936 14.9283L15.6936 6.73334C15.6607 6.64397 15.6133 6.56972 15.5562 6.51812C15.499 6.46653 15.4342 6.43937 15.3681 6.43945H0.374997ZM0.749994 7.61016H15.1521L17.9369 15.2197L15.1521 22.8293H0.749994V7.61016Z" fill="#ABABAB"/>
<path fill-rule="evenodd" clip-rule="evenodd" d="M16.494 15.2202C16.494 13.936 15.819 12.8823 14.997 12.8823C14.1742 12.8823 13.5 13.936 13.5 15.2191C13.5 16.5033 14.175 17.557 14.997 17.557C15.8197 17.557 16.494 16.5033 16.494 15.2202ZM15.744 15.2202C15.744 15.8711 15.414 16.3863 14.997 16.3863C14.8987 16.3875 14.8012 16.3582 14.7102 16.3C14.6192 16.2419 14.5365 16.1561 14.467 16.0475C14.3975 15.939 14.3425 15.81 14.3052 15.668C14.268 15.5259 14.2492 15.3737 14.25 15.2202C14.25 14.5681 14.58 14.053 14.997 14.053C15.414 14.053 15.744 14.5693 15.744 15.2202ZM19.494 14.6349V15.8056H21.3689V14.6349H19.494Z" fill="#ABABAB"/>
<path fill-rule="evenodd" clip-rule="evenodd" d="M20.9932 15.2099C20.994 15.133 21.0045 15.0571 21.024 14.9866C21.0436 14.916 21.0719 14.8522 21.1073 14.7987C21.1427 14.7452 21.1844 14.7031 21.2302 14.6748C21.276 14.6465 21.325 14.6326 21.3742 14.6339C22.0704 14.6339 22.7381 15.0656 23.2303 15.834C23.7226 16.6024 23.9992 17.6446 23.9992 18.7313C23.9992 18.8866 23.9597 19.0355 23.8894 19.1453C23.819 19.255 23.7236 19.3167 23.6242 19.3167C23.5247 19.3167 23.4294 19.255 23.359 19.1453C23.2887 19.0355 23.2492 18.8866 23.2492 18.7313C23.2492 17.9551 23.0517 17.2107 22.7 16.6618C22.3484 16.1129 21.8715 15.8046 21.3742 15.8046C21.324 15.8058 21.274 15.7914 21.2275 15.7619C21.1809 15.7325 21.1385 15.6887 21.103 15.6332C21.0675 15.5777 21.0394 15.5117 21.0206 15.4389C21.0017 15.3662 20.9924 15.2883 20.9932 15.2099Z" fill="#ABABAB"/>
<path d="M3.00847 12.5263H4.25721V11.4492H2.25098V18.9886H3.00847V15.8757H3.98871V14.7986H3.00847V12.5263ZM6.98044 18.9886C6.90544 18.7076 6.89794 18.4384 6.89794 18.0719V16.9094C6.89794 16.1238 6.77344 15.5525 6.39469 15.3055C6.73219 15.0573 6.89119 14.5516 6.89119 13.7754V13.1831C6.89119 12.0205 6.55369 11.4504 5.7662 11.4504H4.62171V18.9874H5.37995V15.919H5.64245C5.98745 15.919 6.13895 16.1766 6.13895 16.8767V18.0614C6.13895 18.676 6.1667 18.7942 6.20795 18.9874L6.98044 18.9886ZM5.74595 12.5263C6.0152 12.5263 6.1322 12.7639 6.1322 13.3025V14.0447C6.1322 14.6476 5.9597 14.8419 5.67695 14.8419H5.37995V12.5263H5.74595ZM8.15568 12.5263H9.46667V11.4492H7.39669V18.9886H9.46667V17.9115H8.15568V15.7024H9.19817V14.6254H8.15568V12.5251V12.5263ZM10.6892 12.5263H12.0001V11.4492H9.93017V18.9886H12.0001V17.9115H10.6884V15.7024H11.7302V14.6254H10.6884V12.5251L10.6892 12.5263Z" fill="#ABABAB"/>
</svg>
