<svg width="24" height="24" viewBox="0 0 24 24" fill="none" xmlns="http://www.w3.org/2000/svg">
<mask id="path-1-inside-1_3276_5228" fill="white">
<path d="M23.7111 8.27066L21.5044 6.06396C21.3263 5.88832 21.0889 5.78576 20.839 5.7765C20.5891 5.76725 20.3448 5.85197 20.1542 6.01395C19.8601 6.26434 19.4826 6.39508 19.0965 6.38027C18.7105 6.36545 18.3442 6.20615 18.07 5.93394C17.798 5.65986 17.6388 5.2936 17.624 4.90769C17.6091 4.52179 17.7398 4.14439 17.99 3.85025C18.152 3.65971 18.2367 3.41539 18.2275 3.16547C18.2182 2.91555 18.1157 2.67817 17.94 2.50013L15.7313 0.290928C15.5447 0.104631 15.2917 0 15.028 0C14.7643 0 14.5114 0.104631 14.3247 0.290928L10.8069 3.80825C10.5897 4.02622 10.4259 4.2915 10.3283 4.58332C10.3093 4.63943 10.2777 4.6904 10.2358 4.73229C10.1939 4.77417 10.1429 4.80585 10.0868 4.82484C9.79488 4.92241 9.52956 5.08639 9.31175 5.30389L0.290927 14.3247C0.104631 14.5114 0 14.7643 0 15.028C0 15.2917 0.104631 15.5447 0.290927 15.7313L2.50013 17.938C2.67817 18.1137 2.91555 18.2162 3.16547 18.2255C3.41539 18.2348 3.65971 18.15 3.85025 17.9881C4.14372 17.7356 4.52174 17.6034 4.90856 17.618C5.29537 17.6325 5.66241 17.7927 5.93613 18.0664C6.20984 18.3401 6.37001 18.7071 6.38453 19.0939C6.39906 19.4808 6.26686 19.8588 6.01445 20.1522C5.85246 20.3428 5.76774 20.5871 5.777 20.837C5.78626 21.087 5.88881 21.3243 6.06445 21.5024L8.27115 23.7091C8.45781 23.8954 8.71075 24 8.97447 24C9.23818 24 9.49113 23.8954 9.67778 23.7091L18.6986 14.6882C18.916 14.4705 19.0799 14.2054 19.1776 13.9137C19.1966 13.8574 19.2283 13.8062 19.2702 13.7643C19.3122 13.7223 19.3634 13.6906 19.4197 13.6717C19.7113 13.5741 19.9764 13.4103 20.1942 13.1931L23.7116 9.67529C23.8972 9.48865 24.0013 9.2361 24.0012 8.97287C24.0011 8.70964 23.8968 8.45716 23.7111 8.27066ZM12.2915 6.78802C12.2172 6.86234 12.129 6.92129 12.0319 6.9615C11.9349 7.00172 11.8308 7.02242 11.7257 7.02242C11.6206 7.02242 11.5166 7.00172 11.4195 6.9615C11.3224 6.92129 11.2342 6.86234 11.1599 6.78802L10.5844 6.21247C10.438 6.06167 10.3568 5.85933 10.3584 5.64917C10.36 5.439 10.4442 5.2379 10.5928 5.08933C10.7415 4.94075 10.9426 4.85662 11.1528 4.85513C11.3629 4.85365 11.5652 4.93491 11.716 5.08137L12.2915 5.65642C12.3658 5.73072 12.4248 5.81892 12.465 5.916C12.5052 6.01309 12.5259 6.11714 12.5259 6.22222C12.5259 6.3273 12.5052 6.43136 12.465 6.52844C12.4248 6.62552 12.3658 6.71373 12.2915 6.78802ZM14.4917 8.98822C14.3417 9.13815 14.1383 9.22237 13.9262 9.22237C13.7141 9.22237 13.5106 9.13815 13.3606 8.98822L12.8106 8.43817C12.7363 8.36387 12.6773 8.27566 12.6371 8.17858C12.5969 8.0815 12.5762 7.97745 12.5762 7.87237C12.5762 7.76729 12.5969 7.66324 12.6371 7.56616C12.6773 7.46908 12.7363 7.38087 12.8106 7.30657C12.9606 7.15651 13.1642 7.07221 13.3764 7.07221C13.4814 7.07221 13.5855 7.0929 13.6826 7.13312C13.7797 7.17333 13.8679 7.23227 13.9422 7.30657L14.4922 7.85662C14.5668 7.93091 14.626 8.01919 14.6664 8.11639C14.7068 8.21359 14.7276 8.31781 14.7276 8.42307C14.7277 8.52833 14.7069 8.63257 14.6666 8.7298C14.6263 8.82704 14.5672 8.91537 14.4927 8.98973L14.4917 8.98822ZM16.6919 11.1884C16.6176 11.2627 16.5294 11.3217 16.4323 11.3619C16.3353 11.4021 16.2312 11.4228 16.1261 11.4228C16.021 11.4228 15.917 11.4021 15.8199 11.3619C15.7228 11.3217 15.6346 11.2627 15.5603 11.1884L15.0103 10.6384C14.8639 10.4876 14.7827 10.2852 14.7843 10.0751C14.7859 9.86491 14.8701 9.66381 15.0187 9.51523C15.1674 9.36665 15.3685 9.28253 15.5787 9.28104C15.7888 9.27955 15.9911 9.36082 16.1419 9.50727L16.6919 10.0573C16.7667 10.1315 16.8261 10.2197 16.8667 10.3169C16.9073 10.414 16.9283 10.5183 16.9286 10.6236C16.9288 10.7289 16.9082 10.8333 16.8681 10.9306C16.8279 11.028 16.7689 11.1164 16.6944 11.1909L16.6919 11.1884ZM18.9136 13.4156C18.8393 13.4899 18.7511 13.5489 18.654 13.5891C18.557 13.6293 18.4529 13.65 18.3478 13.65C18.2427 13.65 18.1387 13.6293 18.0416 13.5891C17.9445 13.5489 17.8563 13.4899 17.782 13.4156L17.21 12.8406C17.1341 12.7665 17.0737 12.6781 17.0323 12.5805C16.9909 12.4828 16.9693 12.378 16.9688 12.2719C16.9683 12.1659 16.9889 12.0608 17.0294 11.9628C17.0698 11.8648 17.1294 11.7758 17.2045 11.701C17.2797 11.6262 17.369 11.5671 17.4672 11.5271C17.5654 11.4871 17.6706 11.467 17.7766 11.4681C17.8826 11.4691 17.9874 11.4912 18.0848 11.5331C18.1822 11.5749 18.2704 11.6357 18.3441 11.712L18.9166 12.2865C18.9909 12.3609 19.0498 12.4491 19.09 12.5462C19.1302 12.6433 19.1508 12.7473 19.1508 12.8524C19.1507 12.9575 19.13 13.0616 19.0897 13.1586C19.0495 13.2557 18.9905 13.3439 18.9161 13.4181L18.9136 13.4156Z"/>
</mask>
<path d="M23.7111 8.27066L21.5044 6.06396C21.3263 5.88832 21.0889 5.78576 20.839 5.7765C20.5891 5.76725 20.3448 5.85197 20.1542 6.01395C19.8601 6.26434 19.4826 6.39508 19.0965 6.38027C18.7105 6.36545 18.3442 6.20615 18.07 5.93394C17.798 5.65986 17.6388 5.2936 17.624 4.90769C17.6091 4.52179 17.7398 4.14439 17.99 3.85025C18.152 3.65971 18.2367 3.41539 18.2275 3.16547C18.2182 2.91555 18.1157 2.67817 17.94 2.50013L15.7313 0.290928C15.5447 0.104631 15.2917 0 15.028 0C14.7643 0 14.5114 0.104631 14.3247 0.290928L10.8069 3.80825C10.5897 4.02622 10.4259 4.2915 10.3283 4.58332C10.3093 4.63943 10.2777 4.6904 10.2358 4.73229C10.1939 4.77417 10.1429 4.80585 10.0868 4.82484C9.79488 4.92241 9.52956 5.08639 9.31175 5.30389L0.290927 14.3247C0.104631 14.5114 0 14.7643 0 15.028C0 15.2917 0.104631 15.5447 0.290927 15.7313L2.50013 17.938C2.67817 18.1137 2.91555 18.2162 3.16547 18.2255C3.41539 18.2348 3.65971 18.15 3.85025 17.9881C4.14372 17.7356 4.52174 17.6034 4.90856 17.618C5.29537 17.6325 5.66241 17.7927 5.93613 18.0664C6.20984 18.3401 6.37001 18.7071 6.38453 19.0939C6.39906 19.4808 6.26686 19.8588 6.01445 20.1522C5.85246 20.3428 5.76774 20.5871 5.777 20.837C5.78626 21.087 5.88881 21.3243 6.06445 21.5024L8.27115 23.7091C8.45781 23.8954 8.71075 24 8.97447 24C9.23818 24 9.49113 23.8954 9.67778 23.7091L18.6986 14.6882C18.916 14.4705 19.0799 14.2054 19.1776 13.9137C19.1966 13.8574 19.2283 13.8062 19.2702 13.7643C19.3122 13.7223 19.3634 13.6906 19.4197 13.6717C19.7113 13.5741 19.9764 13.4103 20.1942 13.1931L23.7116 9.67529C23.8972 9.48865 24.0013 9.2361 24.0012 8.97287C24.0011 8.70964 23.8968 8.45716 23.7111 8.27066ZM12.2915 6.78802C12.2172 6.86234 12.129 6.92129 12.0319 6.9615C11.9349 7.00172 11.8308 7.02242 11.7257 7.02242C11.6206 7.02242 11.5166 7.00172 11.4195 6.9615C11.3224 6.92129 11.2342 6.86234 11.1599 6.78802L10.5844 6.21247C10.438 6.06167 10.3568 5.85933 10.3584 5.64917C10.36 5.439 10.4442 5.2379 10.5928 5.08933C10.7415 4.94075 10.9426 4.85662 11.1528 4.85513C11.3629 4.85365 11.5652 4.93491 11.716 5.08137L12.2915 5.65642C12.3658 5.73072 12.4248 5.81892 12.465 5.916C12.5052 6.01309 12.5259 6.11714 12.5259 6.22222C12.5259 6.3273 12.5052 6.43136 12.465 6.52844C12.4248 6.62552 12.3658 6.71373 12.2915 6.78802ZM14.4917 8.98822C14.3417 9.13815 14.1383 9.22237 13.9262 9.22237C13.7141 9.22237 13.5106 9.13815 13.3606 8.98822L12.8106 8.43817C12.7363 8.36387 12.6773 8.27566 12.6371 8.17858C12.5969 8.0815 12.5762 7.97745 12.5762 7.87237C12.5762 7.76729 12.5969 7.66324 12.6371 7.56616C12.6773 7.46908 12.7363 7.38087 12.8106 7.30657C12.9606 7.15651 13.1642 7.07221 13.3764 7.07221C13.4814 7.07221 13.5855 7.0929 13.6826 7.13312C13.7797 7.17333 13.8679 7.23227 13.9422 7.30657L14.4922 7.85662C14.5668 7.93091 14.626 8.01919 14.6664 8.11639C14.7068 8.21359 14.7276 8.31781 14.7276 8.42307C14.7277 8.52833 14.7069 8.63257 14.6666 8.7298C14.6263 8.82704 14.5672 8.91537 14.4927 8.98973L14.4917 8.98822ZM16.6919 11.1884C16.6176 11.2627 16.5294 11.3217 16.4323 11.3619C16.3353 11.4021 16.2312 11.4228 16.1261 11.4228C16.021 11.4228 15.917 11.4021 15.8199 11.3619C15.7228 11.3217 15.6346 11.2627 15.5603 11.1884L15.0103 10.6384C14.8639 10.4876 14.7827 10.2852 14.7843 10.0751C14.7859 9.86491 14.8701 9.66381 15.0187 9.51523C15.1674 9.36665 15.3685 9.28253 15.5787 9.28104C15.7888 9.27955 15.9911 9.36082 16.1419 9.50727L16.6919 10.0573C16.7667 10.1315 16.8261 10.2197 16.8667 10.3169C16.9073 10.414 16.9283 10.5183 16.9286 10.6236C16.9288 10.7289 16.9082 10.8333 16.8681 10.9306C16.8279 11.028 16.7689 11.1164 16.6944 11.1909L16.6919 11.1884ZM18.9136 13.4156C18.8393 13.4899 18.7511 13.5489 18.654 13.5891C18.557 13.6293 18.4529 13.65 18.3478 13.65C18.2427 13.65 18.1387 13.6293 18.0416 13.5891C17.9445 13.5489 17.8563 13.4899 17.782 13.4156L17.21 12.8406C17.1341 12.7665 17.0737 12.6781 17.0323 12.5805C16.9909 12.4828 16.9693 12.378 16.9688 12.2719C16.9683 12.1659 16.9889 12.0608 17.0294 11.9628C17.0698 11.8648 17.1294 11.7758 17.2045 11.701C17.2797 11.6262 17.369 11.5671 17.4672 11.5271C17.5654 11.4871 17.6706 11.467 17.7766 11.4681C17.8826 11.4691 17.9874 11.4912 18.0848 11.5331C18.1822 11.5749 18.2704 11.6357 18.3441 11.712L18.9166 12.2865C18.9909 12.3609 19.0498 12.4491 19.09 12.5462C19.1302 12.6433 19.1508 12.7473 19.1508 12.8524C19.1507 12.9575 19.13 13.0616 19.0897 13.1586C19.0495 13.2557 18.9905 13.3439 18.9161 13.4181L18.9136 13.4156Z" stroke="#ABABAB" stroke-width="2" mask="url(#path-1-inside-1_3276_5228)"/>
</svg>
