<svg width="16" height="15" viewBox="0 0 16 15" fill="none" xmlns="http://www.w3.org/2000/svg">
<path fill-rule="evenodd" clip-rule="evenodd" d="M15.3851 12.9915C14.9015 14.398 13.0069 15.0997 11.6533 14.9828C9.80459 14.8228 7.79297 13.8842 6.26598 12.8505C4.02145 11.331 1.91897 8.98085 0.693826 6.48671C-0.172025 4.72432 -0.366293 2.55707 0.921517 0.950629C1.39779 0.356834 1.91375 0.039944 2.68664 0.00295677C3.76034 -0.0470259 3.91074 0.540771 4.27943 1.45645C4.55412 2.14122 4.92073 2.83998 5.12544 3.54973C5.50875 4.87427 4.16872 4.92925 3.99952 6.01188C3.89507 6.69464 4.75884 7.61033 5.14946 8.09716C5.90239 9.0453 6.82457 9.85855 7.87339 10.4993C8.46873 10.8582 9.42754 11.505 10.1085 11.1481C11.1572 10.5983 11.059 8.90588 12.5243 9.47868C13.2837 9.77458 14.019 10.2014 14.7438 10.5753C15.8645 11.1521 15.8123 11.7499 15.3851 12.9915C15.7047 12.0638 15.0655 13.9191 15.3851 12.9915Z" fill="black"/>
</svg>
