<svg width="21" height="12" viewBox="0 0 21 12" fill="none" xmlns="http://www.w3.org/2000/svg">
<path d="M0.666992 1.41037V1C0.666992 0.734784 0.79679 0.48043 1.02783 0.292893C1.25887 0.105357 1.57223 0 1.89897 0L19.1467 0C19.4734 0 19.7868 0.105357 20.0178 0.292893C20.2489 0.48043 20.3787 0.734784 20.3787 1V1.41037L10.5228 6.41038L0.666992 1.41037ZM10.8493 7.42413C10.7514 7.47374 10.6383 7.50004 10.5228 7.50004C10.4074 7.50004 10.2943 7.47374 10.1964 7.42413L0.666992 2.58962V11C0.666992 11.2652 0.79679 11.5196 1.02783 11.7071C1.25887 11.8946 1.57223 12 1.89897 12H19.1467C19.4734 12 19.7868 11.8946 20.0178 11.7071C20.2489 11.5196 20.3787 11.2652 20.3787 11V2.58962L10.8493 7.42413Z" fill="black"/>
</svg>
